<svg width="28" height="32" fill="none" xmlns="http://www.w3.org/2000/svg"><path fill-rule="evenodd" clip-rule="evenodd" d="M20.374 7.758c3.561 0 5.838 3.43 5.838 3.43s-3.472 1.879-3.472 5.954c0 4.837 4.364 6.245 4.364 6.245s-3.444 8.134-7.314 8.134c-2.176 0-2.321-1.246-5.212-1.246-2.512 0-3.357 1.245-5.27 1.245-3.651 0-8.366-7.931-8.366-14.383 0-6.698 4.774-9.381 7.767-9.381 2.628 0 3.724 1.541 5.838 1.541 1.782 0 3.185-1.541 5.827-1.541v.002zM19.76.925c.522 3.286-2.47 7.347-6.048 7.215-.525-4.176 3.332-6.99 6.045-7.21l.003-.005z" fill="#fff"/></svg>