<svg width="101" height="37" fill="none" xmlns="http://www.w3.org/2000/svg"><mask id="a" style="mask-type:luminance" maskUnits="userSpaceOnUse" x="0" y="0" width="101" height="37"><path d="M.73.126h100.212V36.51H.73V.126z" fill="#fff"/></mask><g mask="url(#a)"><path fill-rule="evenodd" clip-rule="evenodd" d="M9.961 24.603L8.547 20.22c-.15-.445-.431-1.5-.843-3.16h-.05c-.168.714-.431 1.768-.795 3.162l-1.39 4.385h4.494l-.002-.004zm4.89 7h-2.856l-1.562-4.93H5l-1.491 4.93H.729l5.386-16.788H9.44l5.411 16.79v-.002z" fill="#fff"/></g><mask id="b" style="mask-type:luminance" maskUnits="userSpaceOnUse" x="0" y="0" width="101" height="37"><path d="M.73.126h100.212V36.51H.73" fill="#fff"/></mask><g mask="url(#b)"><path fill-rule="evenodd" clip-rule="evenodd" d="M25.944 25.5c0-1.178-.264-2.15-.793-2.914-.58-.796-1.358-1.194-2.334-1.194-.66 0-1.26.222-1.799.66a3.057 3.057 0 00-1.054 1.731 3.474 3.474 0 00-.126.82v2.02c0 .88.266 1.624.807 2.231.537.606 1.236.91 2.095.91 1.008 0 1.795-.392 2.358-1.17.563-.781.844-1.81.844-3.09m2.73-.097c0 2.058-.556 3.685-1.67 4.88-.998 1.062-2.24 1.594-3.718 1.594-1.596 0-2.744-.573-3.444-1.718v6.352h-2.674V23.482c0-1.296-.034-2.622-.098-3.982h2.356l.15 1.922h.05c.896-1.447 2.25-2.17 4.07-2.17 1.422 0 2.61.565 3.56 1.694.95 1.132 1.425 2.618 1.425 4.461" fill="#fff"/></g><mask id="c" style="mask-type:luminance" maskUnits="userSpaceOnUse" x="0" y="0" width="101" height="37"><path d="M.73.126h100.212V36.51H.73" fill="#fff"/></mask><g mask="url(#c)"><path fill-rule="evenodd" clip-rule="evenodd" d="M39.818 25.5c0-1.178-.266-2.15-.798-2.914-.579-.796-1.354-1.194-2.33-1.194-.662 0-1.26.222-1.8.66a3.049 3.049 0 00-1.053 1.731 3.474 3.474 0 00-.126.82v2.02c0 .88.269 1.624.805 2.231.537.604 1.237.91 2.1.91 1.008 0 1.796-.392 2.356-1.17.56-.781.844-1.81.844-3.09m2.73-.097c0 2.058-.56 3.685-1.673 4.88-1 1.062-2.24 1.594-3.718 1.594-1.6 0-2.748-.573-3.444-1.718v6.352h-2.683V23.482c0-1.296-.033-2.622-.098-3.982h2.357l.15 1.922h.05c.893-1.447 2.25-2.17 4.071-2.17 1.421 0 2.61.565 3.562 1.694.947 1.132 1.426 2.618 1.426 4.461z" fill="#fff"/></g><path fill-rule="evenodd" clip-rule="evenodd" d="M58.06 26.895c0 1.43-.5 2.591-1.489 3.488-1.089.977-2.608 1.467-4.557 1.467-1.799 0-3.242-.35-4.331-1.046l.62-2.243a7.463 7.463 0 003.874 1.046c1.01 0 1.796-.226 2.357-.683.565-.459.847-1.067.847-1.83 0-.68-.233-1.252-.695-1.718-.465-.463-1.232-.897-2.308-1.294-2.931-1.097-4.396-2.699-4.396-4.808 0-1.378.518-2.504 1.55-3.39 1.033-.877 2.404-1.319 4.108-1.319 1.526 0 2.793.267 3.8.798l-.671 2.194c-.95-.517-2.019-.774-3.215-.774-.947 0-1.69.234-2.22.7a1.995 1.995 0 00-.672 1.52c0 .662.258 1.212.77 1.643.448.397 1.26.83 2.432 1.294 1.442.584 2.499 1.264 3.178 2.042.682.78 1.022 1.753 1.022 2.913m8.881-5.375h-2.954v5.875c0 1.497.521 2.243 1.564 2.243.48 0 .88-.042 1.19-.125l.076 2.041c-.527.199-1.221.299-2.082.299-1.06 0-1.886-.325-2.482-.972-.597-.65-.896-1.736-.896-3.264V21.51h-1.759v-2.014h1.76v-2.217l2.632-.797v3.014h2.954v2.022l-.003.002zm10.523 3.995c0-1.108-.238-2.06-.717-2.855-.563-.961-1.368-1.442-2.408-1.442-1.074 0-1.898.48-2.457 1.442-.482.796-.721 1.764-.721 2.905 0 1.111.238 2.064.721 2.859.58.96 1.386 1.441 2.436 1.441 1.022 0 1.824-.49 2.408-1.466.49-.813.738-1.773.738-2.884zm2.779-.06c0 1.86-.532 3.388-1.59 4.583-1.11 1.229-2.582 1.843-4.419 1.843-1.772 0-3.182-.59-4.234-1.767-1.047-1.18-1.573-2.667-1.573-4.458 0-1.875.543-3.413 1.624-4.607 1.085-1.195 2.545-1.795 4.382-1.795 1.77 0 3.192.592 4.267 1.768 1.029 1.145 1.54 2.621 1.54 4.43m8.716-3.585a4.585 4.585 0 00-.845-.075c-.944 0-1.672.358-2.184 1.075-.448.63-.67 1.428-.67 2.389v6.354h-2.679v-8.296c0-1.393-.028-2.667-.078-3.811h2.333l.098 2.317h.075c.284-.795.728-1.437 1.34-1.917a3.23 3.23 0 011.937-.649 4.2 4.2 0 01.666.049l.003 2.567.004-.003zm9.428 2.416c.02-.798-.157-1.486-.518-2.069-.466-.747-1.18-1.12-2.136-1.12-.878 0-1.59.363-2.134 1.096-.445.58-.711 1.278-.792 2.09l5.58.003zm2.556.698c0 .482-.032.889-.098 1.222h-8.038c.028 1.194.42 2.108 1.164 2.739.678.56 1.554.843 2.63.843 1.19 0 2.276-.188 3.253-.57l.42 1.866c-1.14.5-2.492.75-4.043.75-1.87 0-3.339-.553-4.407-1.656-1.064-1.104-1.6-2.589-1.6-4.447 0-1.824.495-3.343 1.49-4.556 1.04-1.294 2.45-1.941 4.217-1.941 1.74 0 3.055.647 3.948 1.941.707 1.025 1.064 2.296 1.064 3.806v.003zM6.267 5.367L5.57 3.214c-.073-.222-.207-.736-.415-1.556H5.13c-.084.353-.207.869-.392 1.556l-.682 2.153h2.21zm2.4 3.437h-1.4l-.77-2.423h-2.67l-.731 2.425h-1.37L4.372.556h1.636l2.66 8.248zm6.623-5.947l-2.247 5.947h-1.281l-2.17-5.947h1.414l1.013 3.146c.171.528.317 1.028.426 1.504h.038c.098-.428.243-.93.425-1.504l.998-3.147h1.38l.004.001zm4.592 2.986c-1.462 0-2.194.356-2.194 1.199 0 .625.378.93.903.93.672 0 1.292-.514 1.292-1.21v-.917l-.001-.002zm.186 2.963l-.098-.685h-.038c-.402.551-.987.82-1.732.82-1.064 0-1.82-.746-1.82-1.75 0-1.47 1.269-2.228 3.464-2.228V4.85c0-.783-.415-1.175-1.232-1.175a2.76 2.76 0 00-1.549.442l-.268-.87c.55-.342 1.232-.513 2.038-.513 1.548 0 2.33.82 2.33 2.46v2.19c0 .603.025 1.07.084 1.422h-1.183l.004-.001z" fill="#fff"/><mask id="d" style="mask-type:luminance" maskUnits="userSpaceOnUse" x="0" y="0" width="101" height="37"><path d="M.73.126h100.212V36.51H.73V.126z" fill="#fff"/></mask><g mask="url(#d)"><path fill-rule="evenodd" clip-rule="evenodd" d="M24.784 8.807h-1.316v-5.95h1.316v5.95zm-.683-6.93a.785.785 0 01-.728-.493.767.767 0 01-.053-.303c0-.45.354-.782.806-.782.451 0 .817.333.804.784 0 .478-.34.796-.829.796v-.002zm4.34 6.93h-1.316V.127h1.316v8.68zm5.418-2.964c-1.466 0-2.198.356-2.198 1.199 0 .625.378.93.903.93.668 0 1.291-.514 1.291-1.21v-.917l.004-.002zm.182 2.963l-.098-.685h-.036c-.403.551-.989.82-1.733.82-1.06 0-1.818-.746-1.818-1.75 0-1.47 1.269-2.228 3.465-2.228v-.111c0-.784-.415-1.175-1.232-1.175-.588 0-1.099.147-1.548.441l-.266-.87c.549-.34 1.232-.515 2.037-.515 1.548 0 2.331.82 2.331 2.464v2.188c0 .601.024 1.067.084 1.42h-1.186zm6.169-5.032c-.76 0-1.454.66-1.454 1.579v1.042c0 .82.623 1.493 1.428 1.493.989 0 1.575-.809 1.575-2.093 0-1.2-.611-2.021-1.55-2.021m.265 5.166c-.84 0-1.463-.355-1.866-1.052h-.025l-.077.916h-1.12c.033-.475.046-1.014.046-1.601V.123h1.319v3.6h.024c.389-.66 1.022-.99 1.89-.99 1.428 0 2.427 1.225 2.427 3.013 0 1.847-1.11 3.194-2.622 3.194m5.894-.133h-1.316V.127h1.316v8.68zm5.961-3.6c0-.917-.462-1.567-1.305-1.567-.758 0-1.352.662-1.442 1.567h2.747zm1.208.942h-3.955c.028 1.128.77 1.764 1.867 1.764.588 0 1.122-.1 1.596-.282l.205.916c-.56.246-1.218.368-1.988.368-1.852 0-2.95-1.175-2.95-3 0-1.822 1.123-3.194 2.805-3.194 1.508 0 2.464 1.128 2.464 2.83.003.228-.01.437-.046.596l.002.002zM61.57 3.7c-.952 0-1.563.893-1.563 2.142 0 1.222.625 2.117 1.554 2.117.924 0 1.547-.956 1.547-2.145 0-1.208-.61-2.115-1.536-2.115m-.053 5.241c-1.732 0-2.856-1.297-2.856-3.06 0-1.835 1.148-3.147 2.956-3.147 1.704 0 2.854 1.237 2.854 3.053 0 1.861-1.183 3.157-2.954 3.157m10.038-.134H70.24V5.392c0-1.052-.404-1.58-1.197-1.58-.78 0-1.32.674-1.32 1.459v3.538h-1.315v-4.25c0-.526-.014-1.09-.05-1.7h1.16l.062.916h.036c.35-.639 1.074-1.042 1.876-1.042 1.246 0 2.062.955 2.062 2.509v3.564l.002.003zm8.617-4.959h-1.45v2.89c0 .735.255 1.102.766 1.102.233 0 .429-.025.588-.061l.035 1.004c-.256.097-.599.147-1.022.147-1.04 0-1.659-.575-1.659-2.083v-3h-.863v-.992h.863v-1.09l1.293-.393v1.483h1.449v.993zm6.976 4.959h-1.32v-3.39c0-1.066-.403-1.605-1.196-1.605-.683 0-1.316.465-1.316 1.408v3.59H82V.126h1.318V3.7h.028c.412-.648 1.008-.967 1.778-.967 1.258 0 2.025.982 2.025 2.537v3.539zm5.523-3.598c0-.916-.462-1.57-1.305-1.57-.756 0-1.351.663-1.438 1.57h2.744-.001zm1.208.94h-3.954c.026 1.128.768 1.764 1.865 1.764.588 0 1.123-.1 1.596-.282l.207.917c-.56.246-1.218.368-1.988.368-1.855 0-2.95-1.175-2.95-3 0-1.822 1.12-3.194 2.803-3.194 1.512 0 2.464 1.128 2.464 2.829.006.23-.007.437-.042.597l-.001.002z" fill="#fff"/></g></svg>