<svg width="30" height="32" fill="none" xmlns="http://www.w3.org/2000/svg"><path d="M21.944 11.293L3.286 1.071C2.757.783 2.27.714 1.875.839L17.156 16.06l4.788-4.77" fill="url(#paint0_linear_19_81)"/><path fill-rule="evenodd" clip-rule="evenodd" d="M21.968 20.858l6.37-3.489c1.29-.71 1.29-1.866 0-2.575l-6.394-3.5-4.788 4.77 4.812 4.794z" fill="url(#paint1_linear_19_81)"/><path d="M1.875.839c-.57.175-.938.75-.938 1.611l.006 27.258c0 .856.355 1.42.907 1.609l15.306-15.253L1.875.839z" fill="url(#paint2_linear_19_81)"/><path d="M1.85 31.32c.397.133.896.069 1.436-.226l18.68-10.236-4.81-4.791L1.85 31.319z" fill="url(#paint3_linear_19_81)"/><defs><linearGradient id="paint0_linear_19_81" x1="387.501" y1="-536.48" x2="1004.43" y2="1545.25" gradientUnits="userSpaceOnUse"><stop stop-color="#19A3B4"/><stop offset=".348" stop-color="#5BC3AF"/><stop offset=".922" stop-color="#C9F7A6"/><stop offset="1" stop-color="#D7FEA5"/></linearGradient><linearGradient id="paint1_linear_19_81" x1="-161.423" y1="-1082.07" x2="548.636" y2="1219.64" gradientUnits="userSpaceOnUse"><stop stop-color="#FC227C"/><stop offset="1" stop-color="#FEEB7B"/></linearGradient><linearGradient id="paint2_linear_19_81" x1="457.518" y1="-450.659" x2="1498.72" y2="2251.26" gradientUnits="userSpaceOnUse"><stop stop-color="#0E4DA0"/><stop offset="1" stop-color="#6BFED4"/></linearGradient><linearGradient id="paint3_linear_19_81" x1="2661.98" y1="268.312" x2="725.66" y2="2479.82" gradientUnits="userSpaceOnUse"><stop stop-color="#FC472E"/><stop offset=".003" stop-color="#FC472E"/><stop offset="1" stop-color="#893CD8"/></linearGradient></defs></svg>