<svg width="30" height="25" fill="none" xmlns="http://www.w3.org/2000/svg"><path d="M28.007 3.556l-.5-.48C24.705.297 20.203.2 17.301 2.886L15 4.995l-2.301-2.206C9.797.103 5.295.199 2.493 2.98l-.5.575c-2.802 2.686-2.602 7.098.3 9.783l2.701 2.398h3.502L12.198 5.57c.2-.575 1.001-.48 1.101.096L15.5 15.833l2.102-4.796c.2-.479.9-.479 1.1.096l1.4 4.7h4.904l2.701-2.398c2.902-2.781 3.102-7.193.3-9.879z" fill="#FFDE00"/><path d="M23.505 17.012h-4.503l-1-3.494L15.7 18.81c-.2.499-1.001.399-1.101-.1l-2.1-10.184-3.002 8.486H6.495l1.601 1.498L15 25l6.904-6.49 1.6-1.498z" fill="#FFDE00"/><path d="M15.314 16.843L12.692 5.597s0-.093-.105-.093-.105 0-.105.093l-3.986 10.13h-4.09V14.8h3.251l3.776-9.574c.315-.464.735-.65 1.259-.65.524 0 .944.371 1.049.836l1.993 8.365 1.573-3.253c.21-.372.63-.65 1.154-.65.525 0 .84.278 1.05.743l1.363 4.183h4.825v.929h-5.56l-1.573-4.926s0-.093-.105-.093h-.105l-3.042 6.134z" fill="#060606"/><path d="M15.21 19.167h-.105c-.525 0-.84-.372-.944-.837l-1.888-7.9-2.623 6.6H0v-.93h8.811l3.671-9.202 2.623 11.154s0 .093.105.093h.105l2.937-6.135 1.363 4.183H30v.93H18.776l-.734-2.324-1.783 3.717c-.21.372-.63.651-1.05.651zm12.377-9.945h-1.048v.929h1.048v-.93zm-2.098 0H24.44v.929h1.049v-.93zm-2.098 0h-1.048v.929h1.048v-.93zm-15.734 0H6.608v.929h1.049v-.93zm-2.098 0H4.51v.929h1.048v-.93zm-2.098 0H2.413v.929H3.46v-.93z" fill="#060606"/></svg>