<svg width="65" height="46" fill="none" xmlns="http://www.w3.org/2000/svg"><path d="M50.8 46C58.6 46 65 39.7 65 31.9c0-7.5-5.9-13.8-13.4-14.2-.1-1.4 0-5.2 3.6-10.4.3-.4.2-.9-.1-1.3-1.5-1.5-2.4-2.4-3-3.1-.8-.9-1.2-1.2-1.8-1.7-.4-.3-.9-.3-1.3 0C40.4 9 35.9 20.3 36.7 31.9c.5 8.2 6.5 14.1 14.1 14.1zM.1 31.9C.7 40.1 6.7 46 14.3 46c7.8 0 14.2-6.3 14.2-14.1 0-7.5-5.9-13.8-13.4-14.2-.1-1.4 0-5.2 3.6-10.4.3-.4.2-.9-.1-1.3-1.5-1.5-2.4-2.4-3-3.1-.8-.9-1.2-1.2-1.8-1.8-.2 0-.5-.1-.7-.1-.2 0-.5.1-.7.2C3.8 9.1-.7 20.4.1 31.9z" fill="#BDE800"/></svg>